<svg width="30" height="30" viewBox="0 0 30 30" fill="none" xmlns="http://www.w3.org/2000/svg">
<path d="M5.12718 25.0781L9.08249 23.76L9.78562 24.0825C11.3875 24.9031 13.1259 25.3134 15.0009 25.3134C18.1847 25.2159 20.8359 24.1759 22.9547 22.1934C25.0734 20.2109 26.1722 17.8134 26.2509 15.0009C26.1728 12.1884 25.0741 9.7909 22.9547 7.8084C20.8353 5.8259 18.1841 4.7859 15.0009 4.6884C11.8172 4.7859 9.16593 5.8259 7.04718 7.8084C4.92843 9.7909 3.82968 12.1884 3.75093 15.0009C3.75093 16.0165 3.92687 17.0225 4.27874 18.0187C4.63062 19.015 5.14812 19.9525 5.83124 20.8312L6.47624 21.6806L5.12718 25.0781ZM3.77905 27.4809C3.4078 27.5984 3.0903 27.5153 2.82655 27.2315C2.5628 26.9478 2.49937 26.6206 2.63624 26.25L4.33593 21.9721C3.55468 20.9371 2.94905 19.8287 2.51905 18.6468C2.08905 17.465 1.87405 16.249 1.87405 14.999C1.95218 11.7765 3.20218 8.96902 5.62405 6.57652C8.04593 4.18402 11.1709 2.92902 14.9991 2.81152C18.8272 2.92902 21.9522 4.18402 24.3741 6.57652C26.7959 8.96902 28.0459 11.7765 28.1241 14.999C28.0459 18.2215 26.7959 21.029 24.3741 23.4215C21.9522 25.814 18.8272 27.069 14.9991 27.1865C12.8703 27.1865 10.8487 26.7178 8.93437 25.7803L3.77905 27.4809ZM15 16.4943C14.7262 16.4943 14.4772 16.4309 14.2528 16.304C14.0284 16.1771 13.8478 15.9915 13.7109 15.7471C13.5741 15.5028 13.5056 15.2537 13.5056 15C13.5056 14.7462 13.5741 14.4971 13.7109 14.2528C13.8478 14.0084 14.0284 13.8228 14.2528 13.6959C14.4772 13.569 14.7262 13.5056 15 13.5056C15.43 13.5056 15.7866 13.6472 16.0697 13.9303C16.3528 14.2134 16.4944 14.57 16.4944 15C16.4944 15.43 16.3528 15.7865 16.0697 16.0696C15.7866 16.3528 15.43 16.4943 15 16.4943ZM20.625 16.4943C20.3512 16.4943 20.1022 16.4309 19.8778 16.304C19.6534 16.1771 19.4728 15.9915 19.3359 15.7471C19.1991 15.5028 19.1306 15.2537 19.1306 15C19.1306 14.7462 19.1991 14.4971 19.3359 14.2528C19.4728 14.0084 19.6534 13.8228 19.8778 13.6959C20.1022 13.569 20.3512 13.5056 20.625 13.5056C21.055 13.5056 21.4116 13.6472 21.6947 13.9303C21.9778 14.2134 22.1194 14.57 22.1194 15C22.1194 15.43 21.9778 15.7865 21.6947 16.0696C21.4116 16.3528 21.055 16.4943 20.625 16.4943ZM9.37499 16.4943C9.10124 16.4943 8.85218 16.4309 8.6278 16.304C8.40343 16.1771 8.2228 15.9915 8.08593 15.7471C7.94905 15.5028 7.88062 15.2537 7.88062 15C7.88062 14.7462 7.94905 14.4971 8.08593 14.2528C8.2228 14.0084 8.40343 13.8228 8.6278 13.6959C8.85218 13.569 9.10124 13.5056 9.37499 13.5056C9.80499 13.5056 10.1616 13.6472 10.4447 13.9303C10.7278 14.2134 10.8694 14.57 10.8694 15C10.8694 15.43 10.7278 15.7865 10.4447 16.0696C10.1616 16.3528 9.80499 16.4943 9.37499 16.4943Z" fill="#08080A" fill-opacity="0.96"/>
</svg>
